:FULLY-SPECIFIED
:FORCE-ALL-JOINTS-BE-3DOF
:DEGREES
453
root 10.7568 17.319 27.5597 5.92066 1.13179 1.59699
lfemur -22.2015 3.90393 -27.691
ltibia 30.2178 0 0
lfoot -12.1723 4.58118 0
ltoes 4.31892 0 0
rfemur -19.9037 -1.09352 17.8502
rtibia 57.3042 0 0
rfoot -2.13958 -6.27471 0
rtoes -15.1011 0 0
lowerback -4.81035 -1.10173 -2.83018
upperback -2.21508 -1.34974 1.33444
thorax 0.579734 -0.67031 2.82256
lowerneck -20.0397 -3.83321 -11.7645
upperneck 24.1921 -4.73111 10.9853
head 11.8596 -1.86821 5.37888
lclavicle 1.29771e-14 1.447e-14 0
lhumerus -25.8782 -11.1009 86.4689
lradius 22.3424 0 0
lwrist -1.76764 0 0
lhand -12.7734 -23.718 0
lfingers 7.12502 0 0
lthumb 13.3111 5.82884 0
rclavicle 1.29771e-14 1.447e-14 0
rhumerus -46.1705 10.2519 -88.8123
rradius 34.4877 0 0
rwrist -16.2603 0 0
rhand -34.1995 -20.0523 0
rfingers 7.12502 0 0
rthumb -7.36998 -49.829 0
454
root 10.7693 17.3275 27.676 5.77022 1.36868 1.67311
lfemur -21.3782 3.83778 -27.7595
ltibia 29.937 0 0
lfoot -12.7018 4.46463 0
ltoes 4.12645 0 0
rfemur -20.9565 -1.08168 17.8065
rtibia 57.2174 0 0
rfoot -3.70552 -6.54743 0
rtoes -14.9691 0 0
lowerback -4.79767 -1.33857 -2.8776
upperback -2.05976 -1.66602 1.38454
thorax 0.75531 -0.831999 2.8842
lowerneck -20.2534 -3.72682 -11.5561
upperneck 24.2866 -4.583 10.8243
head 11.905 -1.79646 5.30836
lclavicle 1.26108e-14 1.47508e-14 0
lhumerus -24.823 -11.7146 86.4053
lradius 22.6362 0 0
lwrist -1.38669 0 0
lhand -12.9164 -23.7771 0
lfingers 7.12502 0 0
lthumb 13.1733 5.77901 0
rclavicle 1.26108e-14 1.47508e-14 0
rhumerus -46.1323 10.3482 -88.6666
rradius 34.9168 0 0
rwrist -16.5127 0 0
rhand -34.6837 -19.5647 0
rfingers 7.12502 0 0
rthumb -7.83747 -49.3286 0
455
root 10.7813 17.3356 27.7925 5.62277 1.60241 1.74837
lfemur -20.5477 3.76956 -27.8229
ltibia 29.6374 0 0
lfoot -13.2236 4.35205 0
ltoes 3.92946 0 0
rfemur -21.9947 -1.0589 17.7602
rtibia 57.0961 0 0
rfoot -5.25521 -6.81639 0
rtoes -14.8474 0 0
lowerback -4.78838 -1.57227 -2.92503
upperback -1.90466 -1.97793 1.43393
thorax 0.932518 -0.991576 2.94507
lowerneck -20.465 -3.62238 -11.3509
upperneck 24.3781 -4.43784 10.6675
head 11.9495 -1.72588 5.23935
lclavicle 1.22673e-14 1.50049e-14 0
lhumerus -23.7875 -12.3258 86.345
lradius 22.9344 0 0
lwrist -1.00482 0 0
lhand -13.0565 -23.8372 0
lfingers 7.12502 0 0
lthumb 13.0384 5.72804 0
rclavicle 1.22673e-14 1.50049e-14 0
rhumerus -46.092 10.44 -88.52
rradius 35.337 0 0
rwrist -16.7608 0 0
rhand -35.153 -19.0887 0
rfingers 7.12502 0 0
rthumb -8.29052 -48.8401 0
456
root 10.7926 17.3431 27.9094 5.47924 1.83182 1.82318
lfemur -19.711 3.70001 -27.8822
ltibia 29.3189 0 0
lfoot -13.7342 4.24359 0
ltoes 3.72984 0 0
rfemur -23.0153 -1.02464 17.7096
rtibia 56.9421 0 0
rfoot -6.77927 -7.08117 0
rtoes -14.7382 0 0
lowerback -4.78262 -1.80182 -2.97284
upperback -1.75071 -2.28405 1.48206
thorax 1.11036 -1.14832 3.00481
lowerneck -20.6733 -3.52037 -11.15
upperneck 24.4661 -4.29636 10.5156
head 11.9928 -1.6568 5.17232
lclavicle 1.19509e-14 1.52318e-14 0
lhumerus -22.7759 -12.9316 86.2879
lradius 23.2361 0 0
lwrist -0.624562 0 0
lhand -13.1929 -23.8978 0
lfingers 7.12502 0 0
lthumb 12.9069 5.67626 0
rclavicle 1.19509e-14 1.52318e-14 0
rhumerus -46.0514 10.5261 -88.3734
rradius 35.745 0 0
rwrist -17.0029 0 0
rhand -35.6039 -18.6275 0
rfingers 7.12502 0 0
rthumb -8.72574 -48.3671 0
457
root 10.8033 17.35 28.0269 5.3406 2.05575 1.89797
lfemur -18.869 3.62989 -27.9382
ltibia 28.9815 0 0
lfoot -14.23 4.1394 0
ltoes 3.5295 0 0
rfemur -24.0154 -0.97838 17.6533
rtibia 56.757 0 0
rfoot -8.2683 -7.34132 0
rtoes -14.6437 0 0
lowerback -4.7805 -2.0262 -3.02138
upperback -1.59887 -2.58294 1.52838
thorax 1.28785 -1.30149 3.06305
lowerneck -20.8772 -3.42129 -10.9546
upperneck 24.5501 -4.15927 10.3697
head 12.0347 -1.58957 5.1077
lclavicle 1.16657e-14 1.5431e-14 0
lhumerus -21.7927 -13.5293 86.2336
lradius 23.5398 0 0
lwrist -0.248446 0 0
lhand -13.3249 -23.9587 0
lfingers 7.12502 0 0
lthumb 12.7796 5.62402 0
rclavicle 1.16657e-14 1.5431e-14 0
rhumerus -46.0122 10.6051 -88.2278
rradius 36.1373 0 0
rwrist -17.2372 0 0
rhand -36.0327 -18.1846 0
rfingers 7.12502 0 0
rthumb -9.13976 -47.9131 0
458
root 10.8134 17.3563 28.1451 5.20779 2.27301 1.97313
lfemur -18.0228 3.55992 -27.9918
ltibia 28.6253 0 0
lfoot -14.7074 4.03963 0
ltoes 3.33033 0 0
rfemur -24.992 -0.919577 17.5898
rtibia 56.5427 0 0
rfoot -9.71293 -7.59641 0
rtoes -14.566 0 0
lowerback -4.78216 -2.2444 -3.07099
upperback -1.45009 -2.87315 1.57231
thorax 1.46399 -1.45037 3.11941
lowerneck -21.0756 -3.32562 -10.7658
upperneck 24.6296 -4.02728 10.2308
head 12.0749 -1.52452 5.04594
lclavicle 1.14157e-14 1.5602e-14 0
lhumerus -20.8423 -14.116 86.1819
lradius 23.8443 0 0
lwrist 0.121 0 0
lhand -13.4518 -24.0193 0
lfingers 7.12502 0 0
lthumb 12.6573 5.57166 0
rclavicle 1.14157e-14 1.5602e-14 0
rhumerus -45.9761 10.6756 -88.0841
rradius 36.5106 0 0
rwrist -17.462 0 0
rhand -36.4361 -17.7633 0
rfingers 7.12502 0 0
rthumb -9.52921 -47.4814 0
459
root 10.8228 17.3618 28.2642 5.08178 2.48245 2.04908
lfemur -17.1733 3.49086 -28.0438
ltibia 28.2502 0 0
lfoot -15.1628 3.94443 0
ltoes 3.13424 0 0
rfemur -25.9421 -0.847697 17.5174
rtibia 56.3009 0 0
rfoot -11.1038 -7.846 0
rtoes -14.5074 0 0
lowerback -4.78772 -2.45539 -3.12205
upperback -1.30531 -3.15325 1.6133
thorax 1.63779 -1.59424 3.17354
lowerneck -21.2673 -3.23384 -10.5848
upperneck 24.7042 -3.9011 10.0999
head 12.1132 -1.46198 4.98748
lclavicle 1.12052e-14 1.57445e-14 0
lhumerus -19.9291 -14.6887 86.1326
lradius 24.1485 0 0
lwrist 0.48125 0 0
lhand -13.5728 -24.0793 0
lfingers 7.12502 0 0
lthumb 12.5407 5.51953 0
rclavicle 1.12052e-14 1.57445e-14 0
rhumerus -45.9449 10.7362 -87.9431
rradius 36.8615 0 0
rwrist -17.6755 0 0
rhand -36.8106 -17.3672 0
rfingers 7.12502 0 0
rthumb -9.8907 -47.0757 0
460
root 10.8316 17.3665 28.3843 4.96352 2.68289 2.12625
lfemur -16.3215 3.42345 -28.0951
ltibia 27.8562 0 0
lfoot -15.5927 3.85394 0
ltoes 2.94313 0 0
rfemur -26.8629 -0.762207 17.4347
rtibia 56.0334 0 0
rfoot -12.4314 -8.08967 0
rtoes -14.47 0 0
lowerback -4.79732 -2.65817 -3.17491
upperback -1.16549 -3.4218 1.65079
thorax 1.80824 -1.73237 3.22506
lowerneck -21.4513 -3.14645 -10.4126
upperneck 24.7733 -3.78146 9.97788
head 12.1493 -1.40229 4.93278
lclavicle 1.10382e-14 1.58579e-14 0
lhumerus -19.0575 -15.2447 86.0853
lradius 24.451 0 0
lwrist 0.829773 0 0
lhand -13.6872 -24.1383 0
lfingers 7.12502 0 0
lthumb 12.4305 5.46796 0
rclavicle 1.10382e-14 1.58579e-14 0
rhumerus -45.9201 10.7856 -87.8059
rradius 37.1866 0 0
rwrist -17.8759 0 0
rhand -37.1526 -16.9995 0
rfingers 7.12502 0 0
rthumb -10.2209 -46.6994 0
461
root 10.8396 17.3705 28.5056 4.85397 2.87317 2.20503
lfemur -15.4684 3.35843 -28.1466
ltibia 27.4433 0 0
lfoot -15.9934 3.76831 0
ltoes 2.75889 0 0
rfemur -27.7514 -0.662573 17.3402
rtibia 55.742 0 0
rfoot -13.6865 -8.32697 0
rtoes -14.4561 0 0
lowerback -4.81107 -2.85171 -3.22991
upperback -1.03157 -3.67736 1.68423
thorax 1.97436 -1.86402 3.2736
lowerneck -21.6263 -3.06393 -10.2506
upperneck 24.8365 -3.66907 9.86583
head 12.1831 -1.34579 4.88229
lclavicle 1.09189e-14 1.59419e-14 0
lhumerus -18.232 -15.781 86.0399
lradius 24.7506 0 0
lwrist 1.16404 0 0
lhand -13.7942 -24.1959 0
lfingers 7.12502 0 0
lthumb 12.3273 5.4173 0
rclavicle 1.09189e-14 1.59419e-14 0
rhumerus -45.9035 10.8223 -87.6734
rradius 37.4825 0 0
rwrist -18.0615 0 0
rhand -37.4586 -16.6637 0
rfingers 7.12502 0 0
rthumb -10.5163 -46.3559 0
462
root 10.8469 17.3735 28.6283 4.75407 3.05212 2.28584
lfemur -14.615 3.29654 -28.1992
ltibia 27.0114 0 0
lfoot -16.3613 3.6877 0
ltoes 2.58343 0 0
rfemur -28.6045 -0.548258 17.2324
rtibia 55.4284 0 0
rfoot -14.8596 -8.55747 0
rtoes -14.4678 0 0
lowerback -4.82911 -3.03501 -3.28743
upperback -0.90451 -3.91851 1.71304
thorax 2.13515 -1.98848 3.3188
lowerneck -21.7913 -2.98678 -10.0997
upperneck 24.8933 -3.56464 9.76469
head 12.2142 -1.29282 4.83644
lclavicle 1.08513e-14 1.59958e-14 0
lhumerus -17.4569 -16.2948 85.9962
lradius 25.0461 0 0
lwrist 1.48153 0 0
lhand -13.8931 -24.2518 0
lfingers 7.12502 0 0
lthumb 12.232 5.36789 0
rclavicle 1.08513e-14 1.59958e-14 0
rhumerus -45.8969 10.8451 -87.5464
rradius 37.7458 0 0
rwrist -18.2305 0 0
rhand -37.7252 -16.3632 0
rfingers 7.12502 0 0
rthumb -10.7736 -46.0489 0
463
root 10.8535 17.3756 28.7525 4.66478 3.21857 2.3691
lfemur -13.7621 3.23853 -28.2536
ltibia 26.5606 0 0
lfoot -16.6928 3.61226 0
ltoes 2.41864 0 0
rfemur -29.4195 -0.41873 17.1096
rtibia 55.0943 0 0
rfoot -15.9414 -8.78074 0
rtoes -14.5074 0 0
lowerback -4.85156 -3.20703 -3.34781
upperback -0.785249 -4.14379 1.73667
thorax 2.28962 -2.10501 3.36028
lowerneck -21.945 -2.91546 -9.96113
upperneck 24.9431 -3.46888 9.67546
head 12.2424 -1.2437 4.79569
lclavicle 1.08397e-14 1.60194e-14 0
lhumerus -16.7367 -16.7832 85.9538
lradius 25.3363 0 0
lwrist 1.7797 0 0
lhand -13.9831 -24.3055 0
lfingers 7.12502 0 0
lthumb 12.1453 5.32008 0
rclavicle 1.08397e-14 1.60194e-14 0
rhumerus -45.9018 10.8526 -87.4259
rradius 37.9732 0 0
rwrist -18.3811 0 0
rhand -37.9488 -16.1013 0
rfingers 7.12502 0 0
rthumb -10.9895 -45.7817 0
464
root 10.8593 17.3767 28.8784 4.58706 3.37135 2.45522
lfemur -12.9109 3.18515 -28.3109
ltibia 26.0909 0 0
lfoot -16.9843 3.54213 0
ltoes 2.26644 0 0
rfemur -30.1934 -0.273453 16.9705
rtibia 54.7417 0 0
rfoot -16.9225 -8.99634 0
rtoes -14.5769 0 0
lowerback -4.87856 -3.36677 -3.41141
upperback -0.674742 -4.35177 1.75457
thorax 2.43678 -2.2129 3.39769
lowerneck -22.0865 -2.85048 -9.83608
upperneck 24.9855 -3.38252 9.59911
head 12.2675 -1.19878 4.76049
lclavicle 1.08881e-14 1.6012e-14 0
lhumerus -16.0758 -17.2434 85.9125
lradius 25.6198 0 0
lwrist 2.05604 0 0
lhand -14.0635 -24.3566 0
lfingers 7.12502 0 0
lthumb 12.0678 5.27421 0
rclavicle 1.08881e-14 1.6012e-14 0
rhumerus -45.9201 10.8433 -87.3128
rradius 38.1612 0 0
rwrist -18.5116 0 0
rhand -38.1259 -15.8815 0
rfingers 7.12502 0 0
rthumb -11.1606 -45.5578 0
